<svg width="60" height="60" viewBox="0 0 60 60" fill="none" xmlns="http://www.w3.org/2000/svg">
<g id="basket-shopping-solid 1" clip-path="url(#clip0_5785_507)">
<path id="Vector" d="M26.3854 4.11331C27.0208 2.7305 26.5417 1.03128 25.3229 0.31644C24.1042 -0.398404 22.5833 0.140658 21.9479 1.51175L12.25 22.5H3.33333C1.48958 22.5 0 24.1758 0 26.25C0 28.3243 1.48958 30 3.33333 30L8.73958 54.3164C9.47917 57.6563 12.1458 60 15.2083 60H44.7917C47.8542 60 50.5208 57.6563 51.2604 54.3164L56.6667 30C58.5104 30 60 28.3243 60 26.25C60 24.1758 58.5104 22.5 56.6667 22.5H47.75L38.0521 1.51175C37.4167 0.140658 35.9062 -0.398404 34.6771 0.31644C33.4479 1.03128 32.9792 2.7305 33.6146 4.11331L42.1146 22.5H17.8854L26.3854 4.11331ZM20 35.625V46.875C20 47.9063 19.25 48.75 18.3333 48.75C17.4167 48.75 16.6667 47.9063 16.6667 46.875V35.625C16.6667 34.5938 17.4167 33.75 18.3333 33.75C19.25 33.75 20 34.5938 20 35.625ZM30 33.75C30.9167 33.75 31.6667 34.5938 31.6667 35.625V46.875C31.6667 47.9063 30.9167 48.75 30 48.75C29.0833 48.75 28.3333 47.9063 28.3333 46.875V35.625C28.3333 34.5938 29.0833 33.75 30 33.75ZM43.3333 35.625V46.875C43.3333 47.9063 42.5833 48.75 41.6667 48.75C40.75 48.75 40 47.9063 40 46.875V35.625C40 34.5938 40.75 33.75 41.6667 33.75C42.5833 33.75 43.3333 34.5938 43.3333 35.625Z" fill="#E4F7FF"/>
</g>
<defs>
<clipPath id="clip0_5785_507">
<rect width="60" height="60" fill="white"/>
</clipPath>
</defs>
</svg>
