<svg width="40" height="41" viewBox="0 0 40 41" fill="none" xmlns="http://www.w3.org/2000/svg">
<g id="Frame" clip-path="url(#clip0_6107_413)">
<path id="Vector" d="M10 3.83325C10.4082 3.83331 10.8022 3.98318 11.1073 4.25444C11.4123 4.52571 11.6072 4.8995 11.655 5.30492L11.6667 5.49992V7.27992L33.4517 8.83825C33.8799 8.86858 34.2799 9.06296 34.5683 9.38089C34.8567 9.69883 35.0114 10.1158 35 10.5449L34.9833 10.7349L33.3167 22.4016C33.2648 22.7669 33.0931 23.1047 32.8286 23.362C32.5641 23.6193 32.2216 23.7815 31.855 23.8233L31.6667 23.8333H11.6667V27.1666H28.3333C29.3097 27.1666 30.2648 27.4526 31.0805 27.9891C31.8963 28.5256 32.5371 29.2893 32.924 30.1858C33.3108 31.0823 33.4266 32.0724 33.2572 33.034C33.0878 33.9956 32.6406 34.8866 31.9707 35.5969C31.3008 36.3073 30.4376 36.806 29.4876 37.0315C28.5376 37.2569 27.5424 37.1993 26.6247 36.8657C25.7071 36.5321 24.9072 35.9371 24.3238 35.1542C23.7404 34.3713 23.399 33.4346 23.3417 32.4599L23.3333 32.1666L23.3417 31.8733C23.37 31.3932 23.465 30.9333 23.6183 30.4999H14.715C14.9529 31.1746 15.0432 31.8926 14.9798 32.6052C14.9165 33.3178 14.7009 34.0086 14.3477 34.6307C13.9945 35.2529 13.5119 35.792 12.9325 36.2117C12.3531 36.6314 11.6904 36.9219 10.9891 37.0635C10.2878 37.2051 9.56433 37.1945 8.86747 37.0326C8.17061 36.8706 7.51663 36.5609 6.94969 36.1246C6.38275 35.6882 5.91607 35.1352 5.58116 34.503C5.24625 33.8708 5.05091 33.1741 5.00833 32.4599L5 32.1666L5.00833 31.8733C5.06601 30.8906 5.41223 29.9469 6.00366 29.1601C6.59509 28.3733 7.40546 27.7784 8.33333 27.4499V7.16659H6.66667C6.25844 7.16653 5.86444 7.01666 5.55938 6.74539C5.25432 6.47413 5.05943 6.10034 5.01167 5.69492L5 5.49992C5.00005 5.0917 5.14993 4.69769 5.42119 4.39263C5.69246 4.08757 6.06625 3.89268 6.47167 3.84492L6.66667 3.83325H10ZM10 30.4999C9.55797 30.4999 9.13405 30.6755 8.82149 30.9881C8.50893 31.3006 8.33333 31.7246 8.33333 32.1666C8.33333 32.6086 8.50893 33.0325 8.82149 33.3451C9.13405 33.6577 9.55797 33.8333 10 33.8333C10.442 33.8333 10.866 33.6577 11.1785 33.3451C11.4911 33.0325 11.6667 32.6086 11.6667 32.1666C11.6667 31.7246 11.4911 31.3006 11.1785 30.9881C10.866 30.6755 10.442 30.4999 10 30.4999ZM28.3333 30.4999C27.8913 30.4999 27.4674 30.6755 27.1548 30.9881C26.8423 31.3006 26.6667 31.7246 26.6667 32.1666C26.6667 32.6086 26.8423 33.0325 27.1548 33.3451C27.4674 33.6577 27.8913 33.8333 28.3333 33.8333C28.7754 33.8333 29.1993 33.6577 29.5118 33.3451C29.8244 33.0325 30 32.6086 30 32.1666C30 31.7246 29.8244 31.3006 29.5118 30.9881C29.1993 30.6755 28.7754 30.4999 28.3333 30.4999Z" fill="#FFFAFA"/>
</g>
<defs>
<clipPath id="clip0_6107_413">
<rect width="40" height="40" fill="white" transform="translate(0 0.5)"/>
</clipPath>
</defs>
</svg>
