<svg width="61" height="104" viewBox="0 0 61 104" fill="none" xmlns="http://www.w3.org/2000/svg">
<path d="M59.6663 59.3362L44.6445 73.1831V73.1904L31.5343 85.2791V62.8599L43.0844 52.0479L51.8294 43.8623L59.6663 59.3362ZM40.5649 21.6036L31.505 30.0738V3.70767L40.5649 21.6036ZM41.561 23.5734L50.8334 41.8852L36.544 55.258L31.5343 59.949V55.2872H31.5123L31.505 32.9774L41.561 23.5734ZM31.5343 91.8232V88.3214L50.0204 103H31.5196L31.5123 91.8232H31.5343ZM20.094 21.2826L29.3737 3L29.381 29.9133L20.094 21.2826ZM29.381 32.8096V59.7155L9.81093 41.5278L19.0906 23.2524L29.381 32.8096ZM29.3883 88.3724V103H10.9681L29.3883 88.3724ZM16.4539 73.1393C16.4466 73.132 16.4393 73.1247 16.4319 73.1175L1 58.8766L8.81485 43.4903L29.403 62.6338V85.104L16.4539 73.1393Z" fill="#E4F7FF" stroke="#E4F7FF" stroke-miterlimit="10"/>
</svg>
