<svg width="60" height="60" viewBox="0 0 60 60" fill="none" xmlns="http://www.w3.org/2000/svg">
<g id="Frame" clip-path="url(#clip0_5785_503)">
<path id="Vector" d="M30 5C32.4723 5 34.889 5.73311 36.9446 7.10663C39.0002 8.48015 40.6024 10.4324 41.5485 12.7165C42.4946 15.0005 42.7421 17.5139 42.2598 19.9386C41.7775 22.3634 40.587 24.5907 38.8388 26.3388C37.0907 28.087 34.8634 29.2775 32.4386 29.7598C30.0139 30.2421 27.5005 29.9946 25.2165 29.0485C22.9324 28.1024 20.9801 26.5002 19.6066 24.4446C18.2331 22.389 17.5 19.9723 17.5 17.5L17.5125 16.9575C17.6523 13.7394 19.029 10.6994 21.3556 8.47165C23.6821 6.24385 26.7788 5.00019 30 5Z" fill="#E4F7FF"/>
<path id="Vector_2" d="M35 35C38.3152 35 41.4946 36.317 43.8388 38.6612C46.183 41.0054 47.5 44.1848 47.5 47.5V50C47.5 51.3261 46.9732 52.5979 46.0355 53.5355C45.0979 54.4732 43.8261 55 42.5 55H17.5C16.1739 55 14.9021 54.4732 13.9645 53.5355C13.0268 52.5979 12.5 51.3261 12.5 50V47.5C12.5 44.1848 13.817 41.0054 16.1612 38.6612C18.5054 36.317 21.6848 35 25 35H35Z" fill="#E4F7FF"/>
</g>
<defs>
<clipPath id="clip0_5785_503">
<rect width="60" height="60" fill="white"/>
</clipPath>
</defs>
</svg>
